<svg id="Layer_1" data-name="Layer 1" xmlns="http://www.w3.org/2000/svg" viewBox="0 0 391.93 168.6"><defs><style>.cls-1{font-size:72px;font-family:ArrayMono-Regular, Array Mono;}.cls-2{font-size:156.84px;font-family:ArrayProportional-Regular, Array Proportional;}</style></defs><text class="cls-1" transform="translate(0 73.35)">FIDG</text><text class="cls-1" transform="translate(0.33 132.12)">WIDG</text><text class="cls-1" transform="translate(341.53 132.12)">S</text><text class="cls-2" transform="translate(197.62 132.53)">I</text><path d="M1126.26,481.75a28.92,28.92,0,0,1-9,1,144.8,144.8,0,0,1-1.61-18.65c-6.29,2-13.16,2.59-21.31,2.74-.35,9-.47,18.62-.47,28.23V521c0,9.76.12,19.53.47,28.53,8,.3,14.79.91,20.15,1.37a69.26,69.26,0,0,1,0,9.77c-7.69.3-19.69.3-25.51.3s-17.82,0-25.51-.3a69.26,69.26,0,0,1,0-9.77c5.48-.46,11.53-1.07,20.15-1.37.35-9.15.47-18.92.47-28.53V508c0-10.22.35-27.91,2.33-41.19-9.09-.15-15.38-.61-22.25-2.74a138.55,138.55,0,0,1-3.91,18.65c-2.79-.3-5.55-.62-8-2,.7-8.08,3.41-21.69,5.27-29.62A32.77,32.77,0,0,1,1065,453a26.1,26.1,0,0,1-.24,3.05c7.92-.46,17.82-.91,24.23-.91,9.08,0,17.59.3,27,.91,0-1.22,0-2.74.12-4.12a24.62,24.62,0,0,1,7.45-.46C1124.62,459.06,1126.38,473.06,1126.26,481.75Z" transform="translate(-778.08 -428.7)"/><path d="M786,568.43s144-3.47,374,0c2,0-.46,4.09-.46,4.09S971,580.31,786,572.58C785.63,572.56,786,568.43,786,568.43Z" transform="translate(-778.08 -428.7)"/></svg>