<?xml version="1.0" standalone="no"?>
<!DOCTYPE svg PUBLIC "-//W3C//DTD SVG 20010904//EN"
 "http://www.w3.org/TR/2001/REC-SVG-20010904/DTD/svg10.dtd">
<svg version="1.0" xmlns="http://www.w3.org/2000/svg"
 width="196.000000pt" height="196.000000pt" viewBox="0 0 196.000000 196.000000"
 preserveAspectRatio="xMidYMid meet">
<metadata>
Created by potrace 1.14, written by Peter Selinger 2001-2017
</metadata>
<g transform="translate(0.000000,196.000000) scale(0.100000,-0.100000)"
fill="#000000" stroke="none">
<path d="M0 980 l0 -980 980 0 980 0 0 980 0 980 -980 0 -980 0 0 -980z m1215
795 c146 -43 278 -125 382 -238 147 -161 215 -337 215 -557 0 -233 -76 -420
-234 -580 -169 -170 -360 -250 -598 -250 -238 0 -429 80 -598 250 -158 160
-234 347 -234 580 0 224 70 401 224 566 123 131 290 220 476 254 88 16 268 4
367 -25z"/>
<path d="M845 1624 c-38 -8 -108 -33 -155 -56 -69 -34 -102 -58 -176 -132
-140 -141 -194 -268 -194 -461 0 -189 57 -324 194 -460 133 -133 282 -195 467
-195 182 0 337 66 469 199 130 131 190 276 190 458 0 191 -54 319 -194 459
-74 74 -107 98 -176 132 -140 68 -278 86 -425 56z m183 -446 l2 -218 178 -105
c97 -58 181 -110 185 -114 11 -11 -52 -113 -67 -108 -16 7 -386 232 -413 252
-23 16 -23 18 -23 260 0 275 -8 253 85 251 l50 -1 3 -217z"/>
</g>
</svg>
