<?xml version="1.0" standalone="no"?>
<!DOCTYPE svg PUBLIC "-//W3C//DTD SVG 20010904//EN"
 "http://www.w3.org/TR/2001/REC-SVG-20010904/DTD/svg10.dtd">
<svg version="1.0" xmlns="http://www.w3.org/2000/svg"
 width="1207.000000pt" height="1207.000000pt" viewBox="0 0 1207.000000 1207.000000"
 preserveAspectRatio="xMidYMid meet">
<metadata>
Created by potrace 1.14, written by Peter Selinger 2001-2017
</metadata>
<g transform="translate(0.000000,1207.000000) scale(0.100000,-0.100000)"
fill="#000000" stroke="none">
<path d="M9550 10325 c0 -6 -37 -10 -92 -9 -51 1 -98 -3 -105 -8 -6 -5 -14 -5
-17 0 -4 7 -101 9 -101 2 0 -2 -36 -9 -80 -14 -22 -3 -51 -8 -65 -11 -14 -3
-44 -6 -67 -6 -24 -1 -43 -4 -43 -8 0 -3 -12 -7 -28 -8 -37 -4 -55 -8 -67 -14
-5 -4 -20 -5 -32 -4 -13 1 -23 -2 -23 -6 0 -4 -8 -6 -17 -4 -10 1 -22 -1 -28
-5 -5 -5 -24 -10 -41 -13 -17 -3 -42 -11 -55 -18 -13 -7 -25 -11 -27 -10 -2 3
-36 -3 -82 -14 -3 0 -15 -6 -27 -13 -13 -7 -23 -9 -23 -5 0 4 -5 2 -12 -5 -7
-7 -22 -12 -35 -12 -13 0 -23 -5 -23 -11 0 -6 -7 -9 -15 -5 -8 3 -15 1 -15 -5
0 -6 -4 -8 -9 -4 -5 3 -12 1 -16 -5 -4 -6 -11 -8 -16 -5 -5 4 -9 2 -9 -4 0 -5
-9 -8 -20 -6 -11 2 -18 0 -15 -6 4 -5 -3 -9 -14 -9 -11 0 -23 -5 -26 -10 -4
-6 -10 -8 -15 -5 -4 3 -13 -2 -20 -10 -7 -8 -16 -12 -21 -9 -5 3 -9 0 -9 -6 0
-6 -4 -9 -9 -5 -5 3 -12 1 -16 -5 -3 -5 -15 -10 -26 -10 -10 0 -19 -4 -19 -10
0 -5 -6 -10 -14 -10 -7 0 -19 -7 -26 -15 -7 -9 -15 -13 -18 -11 -6 7 -62 -26
-62 -35 0 -4 -7 -6 -16 -5 -9 1 -30 -10 -47 -25 -17 -16 -33 -27 -35 -24 -3 2
-12 -4 -21 -15 -9 -11 -23 -20 -31 -22 -8 -2 -21 -11 -28 -21 -7 -9 -17 -15
-22 -12 -4 3 -11 -2 -14 -11 -3 -8 -10 -12 -16 -9 -5 3 -10 -1 -10 -9 0 -9 -6
-16 -14 -16 -8 0 -17 -7 -20 -16 -3 -8 -10 -13 -15 -9 -5 3 -13 -4 -16 -16 -4
-11 -9 -18 -12 -15 -3 3 -21 -10 -39 -29 -18 -19 -36 -35 -39 -35 -4 0 -13 -7
-21 -15 -9 -8 -13 -15 -10 -15 3 0 -2 -9 -11 -19 -9 -11 -20 -18 -24 -15 -4 2
-10 -5 -14 -16 -4 -11 -11 -18 -16 -15 -5 4 -9 0 -9 -7 0 -8 -9 -21 -20 -31
-11 -9 -20 -24 -20 -32 0 -8 -5 -15 -11 -15 -5 0 -7 -5 -3 -12 4 -6 3 -8 -3
-5 -5 3 -17 -3 -26 -14 -9 -10 -14 -19 -10 -19 4 0 -3 -9 -15 -20 -12 -12 -22
-26 -22 -32 0 -6 -8 -17 -17 -25 -10 -8 -12 -11 -5 -8 11 6 11 3 0 -14 -7 -12
-16 -21 -20 -21 -5 0 -8 -6 -8 -12 0 -7 -14 -39 -30 -72 -16 -32 -28 -62 -25
-66 3 -4 -2 -11 -11 -14 -8 -3 -12 -10 -9 -16 3 -5 1 -10 -5 -10 -6 0 -9 -4
-6 -9 3 -5 -1 -14 -9 -21 -8 -7 -12 -16 -9 -21 3 -5 0 -9 -7 -9 -7 0 -9 -3 -6
-7 4 -3 -1 -12 -11 -20 -9 -8 -12 -12 -5 -9 8 5 8 0 0 -18 -7 -13 -15 -22 -18
-20 -7 4 -22 -34 -20 -49 1 -4 -5 -6 -11 -5 -7 2 -12 -5 -11 -15 0 -10 -1 -16
-4 -13 -9 9 -62 -57 -56 -69 4 -5 3 -7 -2 -3 -4 5 -32 -17 -62 -46 -29 -30
-53 -52 -53 -49 0 3 -11 -5 -23 -19 -13 -14 -34 -29 -46 -33 -12 -3 -19 -11
-16 -16 4 -5 0 -9 -8 -9 -8 0 -20 -7 -27 -15 -7 -8 -16 -12 -21 -9 -5 3 -9 0
-9 -6 0 -6 -13 -16 -30 -21 -16 -6 -30 -15 -30 -21 0 -5 -4 -6 -10 -3 -5 3
-10 1 -10 -6 0 -7 -3 -10 -6 -6 -3 3 -15 -3 -27 -13 -11 -11 -23 -17 -27 -15
-4 3 -13 -1 -19 -9 -7 -8 -23 -17 -36 -20 -14 -4 -25 -11 -25 -16 0 -6 -9 -10
-20 -10 -11 0 -20 -5 -20 -11 0 -5 -4 -8 -9 -4 -5 3 -12 1 -16 -5 -3 -5 -15
-10 -26 -10 -10 0 -19 -4 -19 -8 0 -5 -6 -9 -12 -10 -23 -1 -58 -11 -71 -19
-6 -4 -20 -6 -31 -4 -12 2 -16 -1 -11 -9 5 -8 0 -11 -16 -9 -13 2 -30 0 -36
-4 -13 -8 -49 -14 -132 -22 -25 -3 -47 -8 -50 -13 -3 -4 -16 -7 -28 -6 -13 1
-23 -2 -23 -6 0 -5 -9 -6 -20 -3 -11 3 -20 1 -20 -4 0 -5 -10 -10 -22 -11 -28
-3 -48 -7 -68 -15 -24 -9 -74 -20 -82 -19 -5 1 -8 -3 -8 -9 0 -5 -4 -8 -9 -4
-5 3 -13 0 -17 -6 -4 -8 -9 -7 -15 2 -6 10 -9 11 -9 2 0 -7 -11 -13 -25 -13
-14 0 -25 -4 -25 -9 0 -5 -18 -8 -40 -6 -22 2 -40 0 -40 -4 0 -4 -18 -7 -40
-5 -22 1 -42 -2 -46 -7 -3 -5 -13 -5 -24 1 -13 7 -21 7 -25 0 -4 -7 -12 -7
-25 0 -12 7 -21 6 -28 -3 -7 -8 -33 -12 -66 -12 -31 1 -56 -3 -56 -9 0 -6 -5
-5 -12 2 -7 7 -17 8 -28 2 -9 -5 -22 -5 -29 0 -8 4 -27 4 -42 0 -17 -5 -31 -5
-35 1 -4 6 -10 6 -18 0 -7 -6 -16 -8 -19 -5 -3 4 -28 8 -54 10 -26 2 -63 4
-80 6 -18 1 -33 7 -33 13 0 6 -3 7 -8 0 -9 -12 -32 -18 -32 -7 0 4 -19 8 -42
9 -55 2 -156 16 -208 28 -3 1 -29 5 -57 9 -29 4 -53 11 -53 15 0 4 -6 8 -12 8
-40 3 -68 8 -68 13 0 3 -11 7 -26 8 -14 1 -34 6 -44 12 -10 6 -30 11 -44 12
-15 1 -26 6 -26 11 0 4 -4 5 -10 2 -5 -3 -10 -1 -10 4 0 6 -3 10 -7 10 -5 -1
-10 -1 -13 1 -3 1 -16 4 -30 6 -13 2 -28 10 -32 17 -4 6 -8 8 -8 3 0 -5 -7 -3
-15 4 -8 6 -18 9 -24 6 -5 -3 -11 1 -15 9 -3 8 -11 12 -19 9 -8 -3 -20 2 -27
10 -7 9 -16 13 -21 10 -5 -3 -9 0 -9 5 0 6 -9 11 -20 11 -11 0 -20 4 -20 8 0
5 -18 14 -40 21 -22 6 -40 16 -40 22 0 6 -4 7 -10 4 -5 -3 -10 -1 -10 4 0 6
-3 10 -7 9 -12 -3 -83 33 -83 43 0 5 -7 6 -15 3 -8 -4 -15 -1 -15 6 0 6 -4 8
-10 5 -5 -3 -10 -1 -10 5 0 6 -4 9 -9 6 -5 -4 -11 -2 -13 4 -2 6 -14 12 -28
15 -14 3 -26 9 -28 15 -2 5 -12 10 -22 10 -10 0 -20 4 -22 10 -1 5 -15 11 -30
12 -15 1 -25 6 -22 10 5 7 -59 28 -88 28 -9 0 -20 5 -23 10 -3 6 -15 10 -26
10 -10 0 -19 4 -19 9 0 4 -8 8 -17 8 -29 0 -63 15 -63 27 0 6 -5 4 -10 -4 -5
-8 -10 -10 -10 -4 0 6 -10 11 -23 10 -12 -1 -25 2 -28 7 -3 5 -19 10 -35 11
-16 2 -36 6 -45 10 -9 4 -20 6 -25 5 -19 -3 -35 1 -31 9 3 4 -11 8 -32 10 -34
2 -76 9 -76 12 0 2 -36 9 -80 14 -22 2 -40 5 -40 6 0 3 -50 10 -82 11 -18 0
-33 6 -33 13 0 7 -3 7 -8 1 -8 -11 -42 -16 -42 -6 0 9 -52 7 -67 -2 -6 -4 -14
-3 -18 3 -8 13 -476 12 -492 -1 -7 -7 -14 -6 -18 1 -4 7 -13 7 -27 -1 -15 -8
-19 -8 -14 0 5 8 0 8 -19 1 -14 -5 -29 -9 -33 -8 -4 1 -38 -2 -77 -7 -38 -5
-73 -8 -77 -7 -5 1 -8 -2 -8 -8 0 -12 -22 -9 -32 5 -5 6 -8 6 -8 -1 0 -7 -7
-15 -16 -18 -10 -4 -13 -2 -8 7 6 9 4 9 -7 1 -8 -6 -24 -10 -37 -9 -12 1 -22
-2 -22 -6 0 -4 -9 -5 -20 -2 -11 3 -20 1 -20 -5 0 -6 -9 -9 -20 -7 -11 2 -20
1 -20 -3 0 -4 -10 -7 -22 -8 -29 -1 -65 -9 -98 -22 -14 -5 -31 -7 -37 -5 -7 3
-13 0 -13 -7 0 -6 -5 -8 -10 -5 -5 3 -10 2 -10 -2 0 -5 -9 -10 -20 -11 -11 -1
-28 -2 -37 -3 -10 -1 -21 -6 -24 -12 -4 -5 -18 -9 -33 -9 -14 0 -26 -4 -26 -8
0 -4 -15 -11 -33 -14 -17 -3 -44 -12 -59 -20 -15 -8 -40 -17 -57 -21 -17 -4
-31 -11 -31 -16 0 -6 -6 -9 -12 -8 -16 3 -181 -74 -222 -104 -17 -12 -33 -21
-36 -21 -7 2 -34 -8 -40 -15 -8 -10 -64 -42 -82 -48 -10 -3 -18 -10 -18 -15 0
-5 -4 -6 -10 -3 -5 3 -10 1 -10 -4 0 -6 -6 -11 -14 -11 -8 0 -17 -7 -20 -16
-3 -8 -10 -13 -15 -9 -5 3 -16 -3 -23 -12 -7 -10 -20 -19 -28 -21 -8 -2 -25
-14 -36 -28 -12 -13 -25 -24 -29 -24 -5 0 -15 -7 -24 -15 -30 -30 -76 -65 -83
-65 -5 0 -8 -7 -8 -15 0 -9 -6 -12 -18 -8 -9 3 -14 3 -10 -1 3 -4 -6 -19 -20
-32 -15 -13 -40 -35 -55 -49 -15 -14 -25 -25 -22 -25 3 0 -7 -13 -22 -28 -15
-15 -41 -45 -58 -66 -16 -21 -35 -43 -41 -50 -5 -6 -13 -19 -17 -28 -3 -10
-11 -18 -17 -18 -6 0 -9 -4 -6 -8 3 -5 -4 -15 -15 -22 -10 -8 -19 -20 -19 -27
0 -7 -5 -13 -11 -13 -5 0 -8 -4 -5 -9 3 -5 -1 -14 -9 -21 -8 -7 -12 -16 -9
-21 3 -5 0 -9 -7 -9 -7 0 -9 -3 -6 -6 4 -4 -1 -14 -11 -23 -9 -9 -17 -20 -18
-26 -3 -25 -17 -55 -26 -55 -6 0 -8 -6 -5 -14 3 -8 -1 -17 -10 -20 -9 -4 -13
-9 -10 -13 4 -3 2 -12 -4 -20 -6 -7 -8 -13 -4 -13 4 0 2 -6 -4 -14 -6 -8 -11
-18 -10 -22 1 -5 -3 -22 -9 -37 -7 -16 -12 -32 -12 -37 0 -5 -6 -11 -12 -13
-10 -4 -10 -6 0 -6 8 -1 10 -6 5 -13 -4 -7 -8 -22 -9 -33 -2 -11 -5 -33 -9
-50 -4 -16 -8 -55 -10 -85 -2 -30 -4 -55 -5 -55 -4 0 -9 -65 -10 -130 -2 -82
-16 -138 -33 -128 -7 4 -5 -1 3 -11 17 -22 20 -58 21 -321 0 -168 3 -203 16
-217 9 -10 13 -18 9 -18 -4 0 0 -7 8 -16 9 -8 14 -19 11 -24 -3 -5 0 -10 5
-12 6 -2 12 -13 13 -26 0 -12 4 -22 8 -22 4 0 10 -11 13 -25 4 -14 11 -25 16
-25 5 0 7 -6 4 -14 -3 -8 -1 -17 5 -21 6 -3 11 -15 11 -26 0 -10 5 -19 10 -19
6 0 10 -5 10 -12 0 -6 8 -20 17 -31 13 -15 14 -19 3 -13 -9 4 -8 2 2 -7 10 -8
18 -19 18 -26 0 -6 5 -11 12 -11 6 0 9 -3 5 -6 -3 -3 2 -14 11 -25 9 -11 16
-23 16 -27 -1 -4 9 -17 22 -28 12 -12 20 -25 17 -28 -4 -3 -1 -6 6 -6 7 0 9
-5 5 -12 -4 -7 -3 -8 5 -4 6 4 14 0 18 -10 3 -9 42 -53 85 -96 43 -44 78 -84
78 -89 0 -5 4 -9 9 -9 5 0 28 -20 52 -45 23 -24 45 -43 47 -40 7 6 30 -19 25
-27 -2 -5 2 -8 10 -8 8 0 25 -9 38 -20 13 -11 29 -23 34 -28 6 -4 27 -16 47
-25 21 -10 38 -22 38 -28 0 -6 4 -8 9 -5 5 3 21 -4 37 -16 16 -13 25 -16 20
-8 -6 13 -6 13 6 0 7 -8 20 -16 28 -18 8 -2 17 -8 18 -13 2 -5 8 -7 13 -3 5 3
9 1 9 -3 0 -5 20 -15 45 -22 25 -7 45 -17 45 -21 0 -7 23 -17 60 -25 8 -2 16
-9 18 -15 2 -5 8 -8 13 -4 5 3 9 1 9 -5 0 -6 7 -8 15 -5 8 4 15 1 15 -6 0 -6
4 -8 10 -5 5 3 10 1 10 -4 0 -6 3 -10 8 -9 12 2 62 -14 62 -21 0 -4 10 -7 22
-8 11 -1 24 -7 28 -14 4 -6 12 -9 18 -5 6 3 16 1 24 -6 7 -7 20 -14 28 -15 37
-4 65 -14 68 -23 2 -6 8 -8 13 -4 5 3 15 2 22 -3 6 -4 23 -9 37 -11 13 -2 30
-8 37 -14 7 -6 13 -8 13 -5 0 3 15 1 33 -5 39 -12 74 -19 105 -21 12 0 22 -4
22 -8 0 -3 11 -7 25 -8 14 -1 36 -2 50 -3 14 -1 25 -5 25 -8 0 -4 18 -6 41 -6
22 1 42 -1 44 -4 2 -3 25 -5 52 -4 26 1 51 -4 55 -10 6 -8 8 -8 8 0 0 11 40
11 57 1 5 -3 15 -2 23 3 8 5 21 5 31 0 9 -5 19 -6 23 -3 4 4 55 8 114 9 59 2
107 3 107 4 0 1 27 3 61 4 33 1 66 6 72 10 7 4 12 2 12 -5 0 -8 4 -9 13 0 10
8 17 7 27 -2 10 -9 11 -9 6 1 -5 7 -1 12 11 13 18 1 30 2 108 13 111 15 160
23 160 26 0 1 11 3 25 5 97 12 141 17 185 20 28 2 66 6 85 9 53 9 139 18 196
20 27 1 54 5 60 8 5 3 31 4 57 4 27 -1 50 1 52 4 4 6 66 10 195 13 30 0 58 6
62 12 5 7 8 6 8 -1 0 -7 20 -11 48 -12 44 0 147 -9 147 -12 0 -1 96 -11 123
-13 6 0 12 -4 12 -7 0 -4 14 -6 30 -5 17 1 30 -1 30 -5 0 -5 11 -7 25 -5 14 1
25 -1 25 -4 0 -4 8 -7 18 -8 50 -2 82 -8 82 -15 0 -3 8 -7 18 -7 35 -1 67 -6
72 -12 7 -8 144 -49 163 -49 9 0 17 -4 19 -9 2 -5 14 -11 28 -13 14 -1 31 -8
38 -15 7 -6 21 -10 32 -8 11 2 20 0 20 -5 0 -5 17 -14 38 -20 20 -7 41 -16 46
-21 6 -5 18 -9 28 -9 10 0 18 -4 18 -8 0 -5 16 -14 35 -22 19 -8 35 -18 35
-22 0 -5 4 -6 10 -3 6 3 10 1 10 -6 0 -7 3 -10 6 -6 4 3 12 1 20 -6 34 -30 42
-35 49 -29 3 4 11 -1 16 -11 6 -9 17 -17 24 -17 8 0 15 -5 15 -12 0 -6 3 -9 6
-6 5 6 12 1 69 -50 14 -12 25 -19 25 -15 0 4 7 -1 15 -11 8 -11 15 -17 15 -13
0 3 13 -6 29 -21 17 -15 36 -32 43 -39 31 -28 63 -67 60 -75 -1 -4 5 -8 13 -8
8 0 15 -4 15 -10 0 -5 11 -20 24 -33 14 -14 22 -28 19 -31 -4 -3 -1 -6 5 -6 7
0 12 -7 12 -15 0 -8 4 -15 8 -15 4 0 16 -20 26 -45 11 -25 22 -45 25 -45 19 0
14 -160 -5 -210 -4 -8 -8 -37 -11 -65 -2 -27 -8 -54 -14 -59 -13 -14 -11 -29
3 -20 7 5 8 3 2 -7 -9 -14 -11 -28 -16 -112 -1 -26 -6 -47 -10 -47 -11 0 -5
-23 7 -32 6 -5 5 -8 -2 -8 -9 0 -12 -21 -10 -70 1 -41 -2 -70 -8 -70 -7 0 -7
-3 0 -8 6 -4 10 -16 10 -27 0 -11 -4 -23 -10 -27 -6 -5 -5 -8 2 -8 9 0 10 -7
3 -25 -6 -16 -6 -27 2 -31 7 -5 8 -3 3 6 -5 9 -4 11 4 6 9 -6 9 -11 0 -22 -6
-7 -9 -21 -5 -29 3 -8 2 -15 -2 -15 -4 0 -8 -34 -7 -75 0 -41 -3 -75 -6 -75
-9 0 2 -53 15 -69 9 -12 8 -13 -3 -7 -10 7 -12 2 -6 -25 5 -19 9 -47 10 -64 1
-16 5 -37 8 -45 5 -15 7 -32 8 -77 1 -13 5 -23 10 -23 5 0 9 -13 9 -30 0 -16
5 -30 11 -30 8 0 7 -6 -2 -17 -8 -9 -9 -14 -2 -10 7 5 14 -4 18 -23 4 -16 6
-32 5 -36 -1 -3 7 -12 17 -21 10 -8 11 -11 3 -7 -10 5 -9 0 4 -14 11 -12 16
-22 12 -22 -4 0 -1 -7 8 -15 8 -8 13 -24 11 -35 -3 -13 2 -20 12 -20 9 0 13
-3 10 -7 -7 -6 48 -117 70 -140 6 -7 15 -22 18 -33 3 -11 11 -20 17 -20 6 0 8
-3 5 -7 -4 -3 4 -16 18 -29 13 -12 26 -29 27 -36 2 -7 11 -19 21 -26 9 -7 17
-20 17 -28 0 -8 3 -13 8 -12 10 3 141 -130 134 -136 -3 -4 -1 -6 4 -6 5 0 25
-14 44 -30 19 -16 39 -30 43 -30 5 0 5 -4 2 -10 -3 -5 1 -10 9 -10 9 0 16 -4
16 -10 0 -5 5 -10 10 -10 6 0 26 -15 45 -34 18 -19 36 -32 38 -30 2 2 15 -6
28 -18 14 -13 28 -24 32 -26 4 -1 14 -5 22 -8 8 -3 12 -11 8 -17 -3 -5 -1 -7
4 -4 6 4 23 -5 39 -18 16 -14 35 -25 42 -25 6 0 12 -5 12 -11 0 -5 5 -7 10 -4
6 3 10 1 10 -5 0 -6 5 -8 10 -5 6 3 10 2 10 -3 0 -5 14 -15 30 -22 17 -7 30
-16 30 -21 0 -5 9 -9 20 -9 11 0 20 -5 20 -11 0 -5 5 -7 10 -4 6 3 10 1 10 -6
0 -7 3 -10 6 -6 4 3 13 -1 21 -9 9 -8 22 -13 30 -10 7 3 16 -1 19 -9 4 -8 10
-12 15 -9 5 3 9 0 9 -5 0 -6 8 -11 18 -11 10 0 26 -6 37 -14 11 -7 23 -14 28
-15 4 0 23 -8 43 -16 20 -8 43 -15 50 -15 8 0 14 -4 14 -9 0 -5 7 -12 16 -15
9 -4 13 -2 8 5 -3 6 5 3 19 -6 15 -9 31 -14 37 -10 5 3 10 1 10 -4 0 -6 11
-11 24 -11 14 0 28 -5 31 -10 4 -6 11 -8 16 -5 5 4 9 2 9 -2 0 -8 15 -12 58
-15 6 -1 12 -6 12 -11 0 -5 7 -7 15 -4 8 4 17 2 20 -3 3 -5 12 -7 20 -3 8 3
15 1 15 -4 0 -5 8 -9 18 -10 29 -3 71 -11 81 -17 10 -6 76 -19 104 -20 9 0 17
-3 17 -7 0 -3 11 -5 25 -4 14 2 25 0 25 -3 0 -4 13 -8 28 -9 39 -3 84 -11 90
-17 2 -3 14 -1 25 5 14 8 18 8 13 0 -5 -7 2 -11 16 -10 13 0 46 -3 73 -6 28
-3 71 -7 97 -7 26 -1 45 -5 43 -8 -4 -7 427 -3 480 4 22 3 69 8 104 11 36 3
69 9 75 14 6 4 29 9 50 10 22 1 44 5 49 8 6 3 28 8 51 10 56 6 81 10 81 12 0
3 35 11 65 15 14 2 33 7 42 11 9 3 22 7 30 9 7 1 18 5 24 9 6 3 25 8 43 9 17
1 31 6 31 10 0 4 8 8 18 8 10 0 24 6 31 13 10 8 12 8 7 0 -4 -8 3 -7 22 2 15
8 39 16 52 18 13 2 26 9 28 15 2 7 7 10 12 7 4 -3 27 4 51 14 24 11 47 17 51
15 4 -3 8 -1 8 5 0 10 38 27 53 23 4 -1 7 2 7 8 0 5 6 10 14 10 8 0 21 6 28
12 7 7 22 15 33 16 10 2 30 12 43 23 14 10 33 19 43 19 11 0 19 4 19 9 0 4 29
21 65 36 35 16 62 32 59 37 -3 5 -2 7 3 6 14 -5 73 24 73 35 0 6 3 7 7 4 3 -4
20 4 37 17 17 13 41 26 54 30 12 4 22 12 22 17 0 5 7 9 15 9 7 0 19 8 24 18 6
9 11 13 11 8 0 -5 9 1 20 14 11 13 20 20 20 17 0 -10 147 119 184 161 6 6 37
39 69 72 31 33 57 64 57 70 0 5 5 10 10 10 6 0 15 11 22 25 6 13 15 22 19 19
5 -3 9 2 9 10 0 8 10 22 22 30 12 9 23 23 24 33 2 9 10 20 18 25 9 5 16 16 16
23 0 8 5 15 11 15 5 0 7 5 4 10 -3 6 -1 10 4 10 6 0 11 7 11 16 0 8 5 12 10 9
6 -3 10 -3 11 2 3 32 10 49 25 60 10 7 15 13 11 13 -4 0 0 15 10 32 17 33 19
39 22 59 0 5 7 7 14 3 6 -4 9 -4 5 1 -4 4 -1 23 7 42 8 19 12 39 9 44 -3 5 0
9 6 9 7 0 10 6 7 14 -3 8 -2 16 3 18 5 2 10 18 12 36 1 17 6 32 11 32 5 0 7 9
4 20 -3 11 -1 20 3 20 4 0 7 14 6 31 -1 16 1 32 6 35 5 3 6 10 3 15 -4 5 -2 9
3 9 5 0 6 14 4 31 -3 20 -1 30 6 26 13 -9 10 26 -3 35 -6 5 -5 8 4 8 10 0 11
3 2 14 -7 8 -8 17 -3 20 5 3 10 31 11 62 1 32 4 61 7 65 2 4 1 10 -4 13 -5 3
-7 19 -6 35 1 17 -2 31 -8 31 -5 0 -6 6 -2 12 11 17 12 48 3 48 -10 0 -8 42 3
57 5 7 5 14 -2 18 -8 5 -7 11 2 23 10 12 10 14 1 8 -14 -8 -17 2 -13 42 1 12
-4 22 -11 22 -8 0 -8 5 2 17 12 15 12 16 -1 8 -13 -8 -13 -7 -1 9 9 11 11 20
5 24 -6 4 -11 25 -12 47 -5 150 -8 175 -15 175 -5 0 -6 8 -3 17 4 9 1 20 -6
25 -10 6 -10 8 1 8 11 0 11 3 1 15 -7 8 -9 15 -5 15 4 0 1 8 -6 17 -12 15 -12
16 1 8 13 -8 13 -7 0 10 -12 14 -12 19 -2 23 10 3 8 8 -5 19 -10 8 -11 11 -3
7 12 -6 13 -5 4 7 -13 16 -39 90 -36 101 1 5 -3 8 -9 8 -5 0 -7 5 -3 12 4 6
-1 17 -11 25 -14 9 -15 13 -4 13 12 0 12 2 -1 10 -8 5 -10 10 -5 10 6 0 5 4
-2 8 -6 4 -13 16 -15 27 -1 11 -5 22 -8 25 -16 16 -39 73 -33 82 3 6 1 8 -4 5
-6 -4 -14 4 -17 18 -4 14 -11 25 -17 25 -6 0 -7 5 -4 10 3 6 1 10 -4 10 -6 0
-11 9 -11 20 0 11 -7 20 -16 20 -8 0 -12 5 -9 10 3 6 1 10 -4 10 -6 0 -11 7
-11 15 0 8 -4 15 -9 15 -5 0 -14 13 -21 30 -7 16 -16 27 -21 24 -5 -3 -9 -1
-9 5 0 9 -23 39 -61 80 -8 10 -18 25 -22 34 -3 9 -14 17 -22 17 -9 0 -13 5
-10 10 3 6 -1 10 -9 10 -9 0 -16 9 -16 20 0 11 -3 19 -7 19 -18 -3 -36 1 -30
7 7 7 -24 44 -37 44 -14 0 -55 48 -47 56 3 4 1 4 -6 0 -6 -3 -18 3 -26 14 -8
12 -24 22 -35 23 -12 0 -19 3 -17 5 6 6 -22 32 -34 32 -6 0 -11 5 -11 10 0 6
-7 10 -15 10 -8 0 -15 3 -15 8 0 8 -26 23 -72 42 -16 7 -28 16 -28 22 0 5 -4
6 -10 3 -5 -3 -10 -1 -10 5 0 6 -4 8 -10 5 -5 -3 -10 -2 -10 4 0 6 -12 17 -27
25 -16 8 -41 26 -58 40 -16 14 -33 26 -37 26 -5 0 -19 10 -34 23 -14 12 -28
21 -30 19 -8 -4 -32 23 -27 31 2 4 -1 7 -7 7 -6 0 -17 6 -25 13 -7 6 -32 28
-56 47 -24 19 -52 45 -63 57 -10 12 -24 20 -29 16 -6 -3 -7 -1 -3 5 3 6 -4 19
-17 29 -52 42 -144 173 -130 187 3 3 2 6 -4 6 -6 0 -10 14 -9 30 0 17 4 30 9
30 4 0 7 6 6 13 -1 6 3 25 9 40 7 16 12 33 12 38 0 5 3 9 8 9 4 0 14 15 21 33
20 44 92 147 103 147 5 0 6 5 3 10 -3 6 1 13 9 16 9 3 16 13 16 21 0 8 5 11
10 8 6 -3 10 -2 10 3 0 4 10 19 23 32 12 14 21 28 20 32 -2 5 1 7 6 5 5 -1 25
15 45 36 20 20 42 37 47 37 6 0 7 5 4 10 -3 6 -1 10 4 10 11 0 38 20 73 53 10
9 25 17 33 17 8 0 15 5 15 10 0 6 7 10 15 10 8 0 15 5 15 11 0 5 5 7 10 4 6
-3 10 -2 10 3 0 10 79 47 93 44 4 -1 7 2 7 7 0 5 15 13 33 16 17 4 38 12 45
18 7 5 15 7 19 4 3 -4 12 -2 19 3 6 6 20 12 30 14 11 2 47 13 82 25 34 12 73
22 87 23 14 1 25 6 25 10 0 4 9 8 21 8 11 0 28 4 37 9 16 8 69 21 100 23 6 1
12 4 12 8 0 4 6 7 13 7 22 1 81 15 107 26 8 4 26 8 40 11 14 2 36 9 50 14 14
5 30 10 35 11 11 1 111 30 135 39 8 3 18 6 23 7 4 2 10 4 15 5 4 2 12 4 17 5
6 1 26 8 45 16 19 7 38 12 43 11 4 -1 7 3 7 9 0 6 7 9 15 6 8 -4 17 -2 20 3 4
6 15 10 26 10 10 0 19 5 19 11 0 6 7 9 15 5 8 -3 15 0 15 6 0 6 3 8 7 5 3 -4
16 -1 27 6 12 7 53 26 91 42 39 16 73 34 77 39 4 6 8 8 8 3 0 -9 59 20 78 39
7 8 18 12 23 8 5 -3 12 2 15 10 3 9 12 16 20 16 8 0 14 5 14 11 0 5 4 8 10 4
5 -3 18 2 29 12 34 31 50 43 57 43 4 0 14 7 23 15 36 34 81 66 81 58 0 -4 9 6
20 22 11 17 20 26 20 22 0 -5 15 8 34 27 18 20 35 36 38 36 10 0 125 120 120
125 -3 3 0 5 6 5 6 0 14 9 17 21 4 11 9 18 12 15 3 -3 19 11 34 32 16 20 33
42 39 49 6 7 15 24 22 38 6 14 15 25 20 25 5 0 6 5 3 10 -3 6 -1 10 5 10 9 0
29 38 26 50 0 3 9 16 21 29 12 13 20 27 18 32 -3 4 0 13 7 21 7 7 14 20 16 28
2 8 9 29 17 45 14 32 27 65 30 78 2 4 4 10 5 15 2 4 4 12 5 17 2 6 4 12 5 15
7 18 23 95 24 113 0 9 3 17 7 17 4 0 5 8 2 19 -3 10 0 22 7 26 8 5 8 10 -1 21
-6 8 -7 14 -2 14 13 0 13 72 -1 89 -8 11 -8 13 2 7 6 -4 12 -3 12 3 0 5 -4 13
-10 16 -6 4 -5 13 2 25 9 14 9 22 -3 36 -9 11 -9 15 -1 10 8 -5 12 -1 12 11 0
11 -6 25 -12 32 -7 8 -8 11 -2 8 7 -4 11 7 10 33 0 22 -5 40 -10 40 -5 0 -3 7
4 15 7 8 8 15 3 15 -5 0 -9 14 -8 30 1 17 -1 30 -4 30 -4 0 -6 20 -5 45 1 29
-2 42 -9 38 -6 -4 -7 -1 -3 6 11 17 15 61 6 61 -4 0 -7 18 -8 41 -1 30 1 38
11 33 9 -6 9 -4 1 7 -6 8 -11 26 -10 41 1 14 -3 24 -8 21 -5 -4 -7 3 -4 15 4
12 2 22 -2 22 -4 0 -7 14 -6 30 1 17 -1 30 -5 30 -4 0 -6 11 -4 25 1 14 -1 25
-5 25 -4 0 -7 7 -8 15 -1 8 -3 22 -4 30 -1 8 -6 15 -11 15 -5 0 -7 7 -3 15 3
8 0 20 -7 27 -7 7 -14 24 -15 38 -2 14 -8 27 -13 28 -5 2 -7 8 -3 13 3 5 1 9
-5 9 -6 0 -7 7 -4 17 4 11 3 14 -5 9 -8 -5 -12 0 -12 13 0 12 -5 21 -10 21 -6
0 -9 3 -8 8 4 14 -13 52 -23 52 -6 0 -8 4 -5 8 3 5 -4 14 -14 22 -10 8 -17 17
-15 21 3 4 -2 12 -10 19 -8 7 -15 18 -15 25 0 8 -11 22 -25 33 -13 11 -22 22
-19 24 2 3 -23 33 -56 68 -33 34 -60 67 -60 71 0 5 -4 9 -10 9 -5 0 -27 18
-49 40 -22 22 -45 40 -52 40 -7 0 -10 3 -6 6 7 8 -17 34 -32 34 -6 0 -11 5
-11 10 0 6 -7 10 -15 10 -7 0 -18 6 -22 13 -4 7 -18 19 -29 27 -12 8 -49 34
-82 57 -33 23 -66 44 -73 45 -8 2 -16 6 -19 10 -3 3 -12 8 -20 10 -8 2 -19 6
-25 11 -42 31 -84 54 -89 49 -3 -3 -6 -1 -6 5 0 10 -36 26 -52 24 -5 -1 -8 4
-8 10 0 5 -4 7 -10 4 -5 -3 -10 -1 -10 4 0 6 -6 11 -14 11 -13 0 -61 19 -153
61 -24 10 -46 18 -50 17 -5 -1 -18 3 -31 10 -12 7 -27 10 -32 7 -6 -4 -13 0
-16 8 -3 8 -13 14 -22 13 -9 -2 -31 3 -48 10 -18 7 -46 16 -65 19 -18 3 -35 8
-39 10 -3 2 -17 6 -31 9 -13 3 -35 8 -49 11 -32 7 -66 14 -110 21 -19 3 -42 8
-50 11 -8 3 -40 8 -70 10 -30 3 -57 8 -60 11 -3 4 -18 8 -35 8 -36 2 -119 12
-122 14 -8 7 -30 5 -40 -3 -7 -5 -13 -6 -13 -1 0 5 -62 9 -138 9 -80 0 -140 4
-144 10 -5 7 -8 7 -8 0z"/>
</g>
</svg>
